<svg xmlns="http://www.w3.org/2000/svg" viewBox="0 0 933.2 980"><path d="M216.9 103.1c-48.1 0-87.2 38.8-87.2 86.8 0 47.6 39.2 86.8 87.2 86.8 48.6 0 87.7-39.2 87.7-86.8.1-48-39.1-86.8-87.7-86.8zm95.3 464.8l-1.4 27.1v1.4L329 913.7h-83.5l-14-270.2h-35l-17.3 270.2h-78.4l12.1-317.3-6.1-128.3L35 570.3 0 541.8l105.9-239.9h59.7l52.8 83 59.2-83h46.2l18.6-45.3 110.6.5-25.6 22.9 26.6 24.8L420.4 484l58.8 49 56.9-49-35.5-179.7 28.5-25.2-26.1-22.4h105l18.7 45.3h53.1l53.7 72.3 58.3-72.3h50.8l90.6 224.5-37.3 32.2-63.5-105.9L825 595v1.4l18.1 317.3h-83.5l-14-270.2h-35.4l-16.8 270.2H615l12.1-317.3-.9-22.4-32.2 27.1L608.5 980h-93.3l-20.6-322.9h-42.5L435.8 980h-99.9l21.9-378.9-45.6-33.2zm419-464.8c-48.1 0-87.3 38.8-87.3 86.8 0 47.6 39.2 86.8 87.3 86.8 48.5 0 87.7-39.2 87.7-86.8 0-48-39.2-86.8-87.7-86.8zM475.5 0c-60.7 0-109.2 48.6-109.2 108.3 0 59.8 48.5 108.3 109.2 108.3 60.2 0 108.7-48.5 108.7-108.3C584.2 48.6 535.7 0 475.5 0z"/></svg>