<svg xmlns="http://www.w3.org/2000/svg" xmlns:xlink="http://www.w3.org/1999/xlink" viewBox="0 0 757.65 646.35"><defs><linearGradient id="linear-gradient" x1="-7662.96" y1="-22903.34" x2="-7574.95" y2="-22903.34" gradientTransform="matrix(1 0 0 -1 7750.97 -22715.69)" gradientUnits="userSpaceOnUse"><stop offset="0" stop-color="#03549a"/><stop offset=".87" stop-color="#03549a"/></linearGradient><linearGradient id="linear-gradient-2" x1="-7706.97" y1="-22809.52" x2="-7618.96" y2="-22809.52" xlink:href="#linear-gradient"/><linearGradient id="linear-gradient-3" x1="-7794.98" y1="-22809.52" x2="-7706.97" y2="-22809.52" xlink:href="#linear-gradient"/><linearGradient id="linear-gradient-4" x1="-7662.96" y1="-22715.69" x2="-7574.95" y2="-22715.69" xlink:href="#linear-gradient"/><linearGradient id="linear-gradient-5" x1="-7750.97" y1="-22715.69" x2="-7662.96" y2="-22715.69" xlink:href="#linear-gradient"/><linearGradient id="linear-gradient-6" x1="342.06" y1="-699.51" x2="416.18" y2="-699.51" gradientTransform="translate(0 1122.14)" xlink:href="#linear-gradient"/><linearGradient id="linear-gradient-7" x1="380.43" y1="-781.26" x2="454.55" y2="-781.26" gradientTransform="translate(0 1122.14)" xlink:href="#linear-gradient"/><linearGradient id="linear-gradient-8" x1="39.4" y1="-866.45" x2="113.52" y2="-866.45" gradientTransform="translate(0 1122.14)" xlink:href="#linear-gradient"/><linearGradient id="linear-gradient-9" x1="-7750.97" y1="-22903.34" x2="-7662.96" y2="-22903.34" xlink:href="#linear-gradient"/><linearGradient id="linear-gradient-10" x1="76.46" y1="-943.55" x2="150.58" y2="-943.55" gradientTransform="translate(0 1122.14)" xlink:href="#linear-gradient"/><linearGradient id="linear-gradient-11" x1="531.51" y1="-620.52" x2="605.63" y2="-620.52" gradientTransform="translate(0 1122.14)" xlink:href="#linear-gradient"/><linearGradient id="linear-gradient-12" x1="570.23" y1="-861.42" x2="644.35" y2="-861.42" gradientTransform="translate(0 1122.14)" xlink:href="#linear-gradient"/><linearGradient id="linear-gradient-13" x1="492.29" y1="-1023.46" x2="566.41" y2="-1023.46" gradientTransform="translate(0 1122.14)" xlink:href="#linear-gradient"/><linearGradient id="linear-gradient-14" x1="-7618.96" y1="-22809.52" x2="-7530.95" y2="-22809.52" xlink:href="#linear-gradient"/><linearGradient id="linear-gradient-16" x1="-7662.96" y1="-22903.34" x2="-7574.95" y2="-22903.34" gradientTransform="matrix(1 0 0 -1 7750.97 -22715.69)" gradientUnits="userSpaceOnUse"><stop offset="0" stop-color="#3883c5"/><stop offset=".87" stop-color="#03549a"/></linearGradient><linearGradient id="linear-gradient-18" x1="-7750.97" y1="-22903.34" x2="-7662.96" y2="-22903.34" xlink:href="#linear-gradient-16"/><linearGradient id="linear-gradient-20" x1="-7618.96" y1="-22809.52" x2="-7530.95" y2="-22809.52" xlink:href="#linear-gradient-16"/><linearGradient id="linear-gradient-22" x1="-7706.97" y1="-22809.52" x2="-7618.96" y2="-22809.52" xlink:href="#linear-gradient-16"/><linearGradient id="linear-gradient-24" x1="-7794.98" y1="-22809.52" x2="-7706.97" y2="-22809.52" xlink:href="#linear-gradient-16"/><linearGradient id="linear-gradient-26" x1="-7662.96" y1="-22715.69" x2="-7574.95" y2="-22715.69" xlink:href="#linear-gradient-16"/><linearGradient id="linear-gradient-28" x1="-7750.97" y1="-22715.69" x2="-7662.96" y2="-22715.69" xlink:href="#linear-gradient-16"/><linearGradient id="linear-gradient-30" x1="342.06" y1="-699.51" x2="416.18" y2="-699.51" gradientTransform="translate(0 1122.14)" gradientUnits="userSpaceOnUse"><stop offset="0" stop-color="#00adee"/><stop offset=".83" stop-color="#25a9e0"/></linearGradient><linearGradient id="linear-gradient-32" x1="380.43" y1="-781.26" x2="454.55" y2="-781.26" xlink:href="#linear-gradient-30"/><linearGradient id="linear-gradient-34" x1="39.4" y1="-866.45" x2="113.52" y2="-866.45" xlink:href="#linear-gradient-30"/><linearGradient id="linear-gradient-36" x1="76.46" y1="-943.55" x2="150.58" y2="-943.55" xlink:href="#linear-gradient-30"/><linearGradient id="linear-gradient-38" x1="531.51" y1="-620.52" x2="605.63" y2="-620.52" xlink:href="#linear-gradient-30"/><linearGradient id="linear-gradient-40" x1="570.23" y1="-861.42" x2="644.35" y2="-861.42" xlink:href="#linear-gradient-30"/><linearGradient id="linear-gradient-42" x1="492.29" y1="-1023.46" x2="566.41" y2="-1023.46" xlink:href="#linear-gradient-30"/><linearGradient id="linear-gradient-43" x1="420.1" y1="121.81" x2="420.1" y2="243.07" gradientUnits="userSpaceOnUse"><stop offset="0" stop-color="#99999a"/><stop offset=".87" stop-color="#d8d8d7"/></linearGradient><linearGradient id="linear-gradient-44" x1="435.25" y1="275.67" x2="398.53" y2="165.6" gradientUnits="userSpaceOnUse"><stop offset="0" stop-color="#e5e2df"/><stop offset="0" stop-color="#d6d3d0"/><stop offset="0" stop-color="#b0aca9"/><stop offset="0" stop-color="#8e8a87"/><stop offset=".15" stop-color="#868381"/><stop offset=".52" stop-color="#aeafb0"/><stop offset=".63" stop-color="#a1a1a1"/><stop offset=".84" stop-color="#7f7c7a"/><stop offset=".88" stop-color="#787573"/><stop offset="1" stop-color="#808284"/><stop offset="1" stop-color="#d0d2d3"/></linearGradient><linearGradient id="linear-gradient-45" x1="609.23" y1="366.74" x2="609.23" y2="488" xlink:href="#linear-gradient-43"/><linearGradient id="linear-gradient-46" x1="624.39" y1="520.61" x2="587.67" y2="410.54" xlink:href="#linear-gradient-44"/><linearGradient id="linear-gradient-47" x1="534.6" y1="366.74" x2="534.6" y2="488" xlink:href="#linear-gradient-43"/><linearGradient id="linear-gradient-48" x1="549.75" y1="520.61" x2="513.03" y2="410.54" xlink:href="#linear-gradient-44"/><linearGradient id="linear-gradient-49" x1="80.38" y1="364.45" x2="80.38" y2="485.71" xlink:href="#linear-gradient-43"/><linearGradient id="linear-gradient-50" x1="95.53" y1="518.31" x2="58.81" y2="408.24" xlink:href="#linear-gradient-44"/><linearGradient id="linear-gradient-51" x1="268.16" y1="124.59" x2="268.16" y2="245.85" xlink:href="#linear-gradient-43"/><linearGradient id="linear-gradient-52" x1="283.32" y1="278.45" x2="246.59" y2="168.39" xlink:href="#linear-gradient-44"/><linearGradient id="linear-gradient-53" x1="420.1" y1="447.86" x2="420.1" y2="569.12" xlink:href="#linear-gradient-43"/><linearGradient id="linear-gradient-54" x1="435.25" y1="601.72" x2="398.53" y2="491.66" xlink:href="#linear-gradient-44"/><linearGradient id="linear-gradient-55" x1="268.59" y1="447.86" x2="268.59" y2="569.12" xlink:href="#linear-gradient-43"/><linearGradient id="linear-gradient-56" x1="283.74" y1="601.72" x2="247.02" y2="491.66" xlink:href="#linear-gradient-44"/><linearGradient id="linear-gradient-57" x1="496.21" y1="283.55" x2="496.21" y2="404.81" xlink:href="#linear-gradient-43"/><linearGradient id="linear-gradient-58" x1="511.36" y1="437.41" x2="474.64" y2="327.34" xlink:href="#linear-gradient-44"/><linearGradient id="linear-gradient-59" x1="191.97" y1="285" x2="191.97" y2="406.26" xlink:href="#linear-gradient-43"/><linearGradient id="linear-gradient-60" x1="207.13" y1="438.86" x2="170.4" y2="328.79" xlink:href="#linear-gradient-44"/><linearGradient id="linear-gradient-61" x1="194.04" y1="123.69" x2="194.04" y2="244.95" xlink:href="#linear-gradient-43"/><linearGradient id="linear-gradient-62" x1="209.2" y1="277.55" x2="172.48" y2="167.49" xlink:href="#linear-gradient-44"/><clipPath id="clip-path"><path class="cls-1" d="M175.22 160.26c-23.64-.38-42.73-17.63-43.19-39-.46 21.34-19.46 38.56-43 39H88v54.79c.46 21.39 19.55 38.64 43.2 39h1.8c23.57-.46 42.57-17.68 43-39v-54.79z"/></clipPath><clipPath id="clip-path-2"><path class="cls-11" d="M87.21 160.26c-23.64-.38-42.74-17.63-43.19-39-.45 21.34-19.46 38.56-43 39H0v54.79c.46 21.39 19.55 38.64 43.2 39H45c23.57-.46 42.57-17.68 43-39v-54.79z"/></clipPath><clipPath id="clip-path-3"><path class="cls-18" d="M219.23 66.43c-23.65-.38-42.74-17.63-43.2-39-.46 21.34-19.46 38.56-43 39h-1v54.8c.46 21.38 19.55 38.63 43.19 39H177c23.57-.46 42.57-17.68 43-39v-54.8z"/></clipPath><clipPath id="clip-path-4"><path class="cls-2" d="M175.22 157.24c-22.09-.35-39.77-16.2-40.19-36.08V69.35c18.9-1.09 34.65-12.19 41-27.58 6.34 15.41 22.1 26.51 41 27.58v51.81c-.43 19.8-18 35.65-40.09 36.08h-1.71z"/></clipPath><clipPath id="clip-path-5"><path class="cls-3" d="M131.22 66.43c-23.65-.38-42.74-17.63-43.2-39-.46 21.34-19.46 38.56-43 39H44v54.8c.45 21.38 19.55 38.63 43.19 39H89c23.57-.46 42.57-17.68 43-39v-54.8z"/></clipPath><clipPath id="clip-path-6"><path class="cls-2" d="M87.21 157.24C65.12 156.89 47.44 141 47 121.16V69.35c18.9-1.09 34.65-12.19 41-27.58 6.34 15.41 22.1 26.51 41 27.58v51.81c-.43 19.8-18 35.65-40.09 36.08h-1.7z"/></clipPath><clipPath id="clip-path-7"><path class="cls-4" d="M43.21 66.43C19.56 66.05.47 48.8 0 27.41-.47 48.75-19.47 66-43 66.43h-1v54.8c.45 21.38 19.55 38.63 43.19 39H1c23.56-.46 42.57-17.68 43-39v-54.8z"/></clipPath><clipPath id="clip-path-8"><path class="cls-2" d="M-.8 157.24c-22.09-.35-39.77-16.2-40.2-36.08V69.35c18.9-1.09 34.65-12.19 41-27.58 6.34 15.41 22.1 26.51 41 27.58v51.81C40.57 141 23 156.81.91 157.24H-.8z"/></clipPath><clipPath id="clip-path-9"><path class="cls-5" d="M175.22-27.4c-23.64-.38-42.73-17.63-43.19-39-.46 21.33-19.46 38.55-43 39H88v54.8c.46 21.38 19.55 38.63 43.2 39h1.8c23.57-.46 42.57-17.68 43-39v-54.8z"/></clipPath><clipPath id="clip-path-10"><path class="cls-2" d="M131.22 63.41c-22.09-.35-39.77-16.2-40.2-36.08v-51.81c18.91-1.09 34.66-12.19 41-27.57 6.34 15.41 22.11 26.5 41 27.57v51.81c-.42 19.8-18 35.65-40.09 36.08h-1.7z"/></clipPath><clipPath id="clip-path-11"><path class="cls-6" d="M87.21-27.4C63.57-27.78 44.47-45 44-66.41c-.45 21.33-19.46 38.55-43 39H0V27.4c.46 21.38 19.55 38.63 43.2 39H45c23.57-.46 42.57-17.68 43-39v-54.8z"/></clipPath><clipPath id="clip-path-12"><path class="cls-2" d="M43.21 63.41C21.11 63.06 3.44 47.21 3 27.33v-51.81C21.91-25.57 37.66-36.67 44-52c6.34 15.41 22.11 26.5 41 27.57v51.76C84.58 47.13 67 63 44.91 63.41h-1.7z"/></clipPath><clipPath id="clip-path-13"><path class="cls-7" d="M415.51 399.55c-19.91-.32-36-14.84-36.38-32.85-.38 18-16.39 32.47-36.23 32.85h-.82v46.15c.39 18 16.47 32.54 36.38 32.86h1.48c19.85-.39 35.86-14.89 36.24-32.86v-46.15z"/></clipPath><clipPath id="clip-path-14"><path class="cls-8" d="M378.45 476c-18.61-.3-33.49-13.64-33.85-30.38V402c15.92-.92 29.19-10.27 34.53-23.22 5.34 13 18.61 22.32 34.53 23.22v43.64c-.36 16.67-15.19 30-33.76 30.38h-1.44z"/></clipPath><clipPath id="clip-path-15"><path class="cls-9" d="M453.88 317.81c-19.88-.32-36-14.81-36.38-32.81-.39 18-16.39 32.47-36.24 32.86h-.81V364c.38 18 16.46 32.54 36.38 32.86h1.48c19.85-.39 35.85-14.89 36.24-32.86v-46.19z"/></clipPath><clipPath id="clip-path-16"><path class="cls-8" d="M416.82 394.29c-18.61-.3-33.5-13.65-33.86-30.39v-43.63c15.92-.92 29.18-10.27 34.53-23.23 5.34 13 18.61 22.33 34.53 23.23v43.63c-.35 16.68-15.18 30-33.76 30.38h-1.43z"/></clipPath><clipPath id="clip-path-17"><path class="cls-10" d="M112.85 232.62c-19.92-.32-36-14.85-36.38-32.86-.39 18-16.39 32.47-36.24 32.85h-.83v46.14c.38 18 16.46 32.54 36.38 32.86h1.48c19.85-.39 35.85-14.89 36.24-32.86v-46.13z"/></clipPath><clipPath id="clip-path-18"><path class="cls-8" d="M75.79 309.09c-18.61-.3-33.5-13.64-33.86-30.38v-43.63c15.92-.93 29.18-10.28 34.53-23.23 5.34 13 18.61 22.32 34.53 23.23v43.63c-.35 16.67-15.18 30-33.76 30.38h-1.44z"/></clipPath><clipPath id="clip-path-19"><path class="cls-12" d="M149.91 155.52c-19.92-.32-36-14.85-36.38-32.86-.39 18-16.39 32.47-36.24 32.86h-.81v46.14c.38 18 16.46 32.54 36.38 32.86h1.48c19.85-.39 35.85-14.89 36.24-32.86v-46.14z"/></clipPath><clipPath id="clip-path-20"><path class="cls-8" d="M112.85 232c-18.61-.3-33.5-13.65-33.86-30.39V158c15.93-.92 29.19-10.27 34.53-23.23 5.34 13 18.62 22.33 34.54 23.23v43.63c-.36 16.68-15.18 30-33.76 30.38h-1.43z"/></clipPath><clipPath id="clip-path-21"><path class="cls-13" d="M605 478.55c-19.92-.32-36-14.85-36.38-32.86-.39 18-16.39 32.47-36.24 32.86h-.81v46.15c.38 18 16.46 32.54 36.38 32.86h1.48c19.85-.39 35.85-14.9 36.24-32.86v-46.15z"/></clipPath><clipPath id="clip-path-22"><path class="cls-8" d="M567.9 555c-18.61-.3-33.5-13.65-33.86-30.39V481c15.93-.92 29.19-10.27 34.53-23.22 5.34 13 18.62 22.32 34.54 23.22v43.63c-.36 16.68-15.18 30-33.76 30.39h-1.45z"/></clipPath><clipPath id="clip-path-23"><path class="cls-14" d="M643.68 237.65c-19.92-.32-36-14.85-36.38-32.85-.39 18-16.39 32.46-36.24 32.85h-.81v46.15c.38 18 16.46 32.54 36.38 32.86h1.48c19.85-.39 35.85-14.89 36.24-32.86v-46.15z"/></clipPath><clipPath id="clip-path-24"><path class="cls-8" d="M606.62 314.13c-18.61-.3-33.5-13.65-33.86-30.39v-43.63c15.93-.92 29.19-10.27 34.53-23.22 5.34 13 18.62 22.32 34.54 23.22v43.63c-.36 16.68-15.18 30-33.76 30.39h-1.43z"/></clipPath><clipPath id="clip-path-25"><path class="cls-15" d="M565.74 75.61c-19.92-.32-36-14.85-36.38-32.86-.38 18-16.39 32.47-36.23 32.86h-.82v46.14c.39 18 16.47 32.54 36.38 32.86h1.48c19.85-.39 35.86-14.89 36.24-32.86V75.61z"/></clipPath><clipPath id="clip-path-26"><path class="cls-8" d="M528.68 152.09c-18.61-.3-33.5-13.65-33.85-30.39V78.07c15.92-.92 29.18-10.27 34.53-23.23 5.34 13 18.61 22.33 34.53 23.23v43.63c-.35 16.68-15.18 30-33.75 30.38h-1.44z"/></clipPath><clipPath id="clip-path-27"><path class="cls-16" d="M452.57 154.62c-19.92-.32-36-14.85-36.38-32.86-.38 18-16.39 32.47-36.23 32.86h-.82v46.15c.39 18 16.47 32.53 36.38 32.85H417c19.85-.38 35.86-14.89 36.24-32.85v-46.15z"/></clipPath><clipPath id="clip-path-28"><path class="cls-17" d="M415.51 231.1c-18.61-.3-33.5-13.65-33.85-30.39v-43.63c15.92-.92 29.18-10.27 34.53-23.22 5.34 13 18.61 22.32 34.53 23.22v43.63c-.35 16.68-15.18 30-33.75 30.39h-1.44z"/></clipPath><clipPath id="clip-path-29"><path class="cls-16" d="M641.7 399.55c-19.91-.32-36-14.84-36.37-32.85-.39 18-16.39 32.47-36.24 32.85h-.81v46.15c.38 18 16.46 32.54 36.37 32.86h1.49c19.85-.39 35.85-14.89 36.24-32.86v-46.15z"/></clipPath><clipPath id="clip-path-30"><path class="cls-17" d="M604.64 476c-18.6-.3-33.49-13.64-33.85-30.38V402c15.92-.92 29.19-10.27 34.53-23.22 5.34 13 18.62 22.32 34.54 23.22v43.64c-.36 16.67-15.19 30-33.76 30.38h-1.44z"/></clipPath><clipPath id="clip-path-31"><path class="cls-16" d="M567.07 399.55c-19.91-.32-36-14.84-36.38-32.85-.38 18-16.39 32.47-36.23 32.85h-.82v46.15c.39 18 16.47 32.54 36.38 32.86h1.49c19.84-.39 35.85-14.89 36.23-32.86v-46.15z"/></clipPath><clipPath id="clip-path-32"><path class="cls-17" d="M530 476c-18.61-.3-33.49-13.64-33.85-30.38V402c15.92-.92 29.19-10.27 34.53-23.22 5.34 13 18.61 22.32 34.54 23.22v43.64c-.36 16.67-15.19 30-33.76 30.38H530z"/></clipPath><clipPath id="clip-path-33"><path class="cls-16" d="M112.85 397.26c-19.92-.32-36-14.85-36.38-32.86-.39 18-16.39 32.47-36.24 32.86h-.83v46.15c.38 18 16.46 32.53 36.38 32.85h1.48c19.85-.39 35.85-14.89 36.24-32.85v-46.15z"/></clipPath><clipPath id="clip-path-34"><path class="cls-17" d="M75.79 473.74c-18.61-.3-33.5-13.65-33.86-30.39v-43.63c15.92-.92 29.18-10.27 34.53-23.23 5.34 13 18.61 22.33 34.53 23.23v43.63c-.35 16.68-15.18 30-33.76 30.39h-1.44z"/></clipPath><clipPath id="clip-path-35"><path class="cls-16" d="M300.63 157.4c-19.91-.32-36-14.85-36.38-32.86-.39 18-16.39 32.47-36.24 32.86h-.82v46.15c.39 18 16.47 32.54 36.38 32.86h1.49c19.85-.38 35.85-14.89 36.23-32.85V157.4z"/></clipPath><clipPath id="clip-path-36"><path class="cls-17" d="M263.57 233.88c-18.6-.3-33.49-13.65-33.85-30.39v-43.63c15.92-.92 29.19-10.27 34.53-23.22 5.34 13 18.62 22.32 34.54 23.22v43.63c-.36 16.68-15.19 30-33.76 30.39h-1.44z"/></clipPath><clipPath id="clip-path-37"><path class="cls-16" d="M452.57 480.67c-19.92-.32-36-14.85-36.38-32.86-.38 18-16.39 32.47-36.23 32.86h-.82v46.15c.39 18 16.47 32.53 36.38 32.85H417c19.85-.38 35.86-14.89 36.24-32.85v-46.15z"/></clipPath><clipPath id="clip-path-38"><path class="cls-17" d="M415.51 557.15c-18.61-.3-33.5-13.65-33.85-30.39v-43.63c15.92-.92 29.18-10.27 34.53-23.22 5.34 13 18.61 22.32 34.53 23.22v43.63c-.35 16.68-15.18 30-33.75 30.39h-1.44z"/></clipPath><clipPath id="clip-path-39"><path class="cls-16" d="M301.06 480.67c-19.92-.32-36-14.85-36.38-32.86-.39 18-16.39 32.47-36.24 32.86h-.81v46.15c.38 18 16.46 32.53 36.38 32.85h1.48c19.85-.38 35.85-14.89 36.24-32.85v-46.15z"/></clipPath><clipPath id="clip-path-40"><path class="cls-17" d="M264 557.15c-18.61-.3-33.5-13.65-33.86-30.39v-43.63c15.92-.92 29.18-10.27 34.53-23.22 5.34 13 18.61 22.32 34.53 23.22v43.63c-.36 16.68-15.18 30-33.76 30.39H264z"/></clipPath><clipPath id="clip-path-41"><path class="cls-16" d="M528.68 316.36c-19.91-.32-36-14.85-36.38-32.86-.38 18-16.39 32.47-36.23 32.85h-.82v46.15c.39 18 16.47 32.54 36.38 32.86h1.49C513 395 529 380.47 529.34 362.5v-46.14z"/></clipPath><clipPath id="clip-path-42"><path class="cls-17" d="M491.62 392.83c-18.61-.3-33.49-13.64-33.85-30.38v-43.63c15.92-.93 29.19-10.28 34.53-23.23 5.34 13 18.61 22.32 34.53 23.23v43.63c-.36 16.67-15.19 30-33.76 30.38h-1.44z"/></clipPath><clipPath id="clip-path-43"><path class="cls-16" d="M224.44 317.81c-19.91-.32-36-14.85-36.38-32.86-.38 18-16.38 32.47-36.23 32.86H151V364c.39 18 16.47 32.54 36.38 32.86h1.49c19.85-.39 35.85-14.89 36.23-32.86v-46.19z"/></clipPath><clipPath id="clip-path-44"><path class="cls-17" d="M187.38 394.29c-18.6-.3-33.49-13.65-33.85-30.39v-43.63c15.92-.92 29.19-10.27 34.53-23.23 5.34 13 18.62 22.33 34.54 23.23v43.63c-.36 16.68-15.19 30-33.76 30.38h-1.44z"/></clipPath><clipPath id="clip-path-45"><path class="cls-16" d="M226.51 156.5c-19.91-.32-36-14.85-36.38-32.85-.39 18-16.39 32.47-36.24 32.85h-.81v46.15c.38 18 16.46 32.54 36.37 32.86h1.49c19.85-.39 35.85-14.89 36.24-32.86V156.5z"/></clipPath><clipPath id="clip-path-46"><path class="cls-17" d="M189.45 233c-18.6-.3-33.49-13.65-33.85-30.39V159c15.92-.92 29.19-10.27 34.53-23.22 5.34 13 18.62 22.32 34.54 23.22v43.63c-.36 16.68-15.19 30-33.76 30.39h-1.44z"/></clipPath><pattern id="Blue_Sheild" data-name="Blue Sheild" width="176.02" height="187.66" patternTransform="matrix(.86 0 0 .86 -387.61 -411.81)" patternUnits="userSpaceOnUse"><path fill="none" d="M0 0h176.02v187.66H0z"/><path class="cls-1" d="M175.22 160.26c-23.64-.38-42.73-17.63-43.19-39-.46 21.34-19.46 38.56-43 39H88v54.79c.46 21.39 19.55 38.64 43.2 39h1.8c23.57-.46 42.57-17.68 43-39v-54.79z"/><g clip-path="url(#clip-path)"><path d="M175.22 160.26c-23.64-.38-42.73-17.63-43.19-39-.46 21.34-19.46 38.56-43 39H88v54.79c.46 21.39 19.55 38.64 43.2 39h1.8c23.57-.46 42.57-17.68 43-39v-54.79z" fill="url(#linear-gradient-16)"/><circle class="cls-22" cx="90.51" cy="126.7" r="41.51"/><circle class="cls-23" cx="173.52" cy="126.7" r="41.51"/><path class="cls-2" d="M131.22 251.07c-22.09-.36-39.77-16.2-40.2-36.08v-51.81c18.91-1.09 34.66-12.2 41-27.58 6.34 15.41 22.11 26.51 41 27.58V215c-.42 19.8-18 35.65-40.09 36.08h-1.7z"/></g><path class="cls-11" d="M87.21 160.26c-23.64-.38-42.74-17.63-43.19-39-.45 21.34-19.46 38.56-43 39H0v54.79c.46 21.39 19.55 38.64 43.2 39H45c23.57-.46 42.57-17.68 43-39v-54.79z"/><g clip-path="url(#clip-path-2)"><path d="M87.21 160.26c-23.64-.38-42.74-17.63-43.19-39-.45 21.34-19.46 38.56-43 39H0v54.79c.46 21.39 19.55 38.64 43.2 39H45c23.57-.46 42.57-17.68 43-39v-54.79z" fill="url(#linear-gradient-18)"/><circle class="cls-22" cx="2.5" cy="126.7" r="41.51"/><circle class="cls-23" cx="85.51" cy="126.7" r="41.51"/><path class="cls-2" d="M43.21 251.07C21.11 250.71 3.44 234.87 3 215v-51.82c18.91-1.09 34.66-12.2 41-27.58 6.34 15.41 22.11 26.51 41 27.58V215c-.42 19.8-18 35.65-40.09 36.08h-1.7z"/></g><path class="cls-18" d="M219.23 66.43c-23.65-.38-42.74-17.63-43.2-39-.46 21.34-19.46 38.56-43 39h-1v54.8c.46 21.38 19.55 38.63 43.19 39H177c23.57-.46 42.57-17.68 43-39v-54.8z"/><g clip-path="url(#clip-path-3)"><path d="M219.23 66.43c-23.65-.38-42.74-17.63-43.2-39-.46 21.34-19.46 38.56-43 39h-1v54.8c.46 21.38 19.55 38.63 43.19 39H177c23.57-.46 42.57-17.68 43-39v-54.8z" fill="url(#linear-gradient-20)"/><circle class="cls-22" cx="134.51" cy="32.87" r="41.51"/><path class="cls-2" d="M175.22 157.24c-22.09-.35-39.77-16.2-40.19-36.08V69.35c18.9-1.09 34.65-12.19 41-27.58 6.34 15.41 22.1 26.51 41 27.58v51.81c-.43 19.8-18 35.65-40.09 36.08h-1.71z"/><g clip-path="url(#clip-path-4)"><path class="cls-29" d="M118.8 139.77l144.22-39.11-10.44 92-74.99 45.78-88.57-23.56 29.78-75.11z"/></g></g><path class="cls-3" d="M131.22 66.43c-23.65-.38-42.74-17.63-43.2-39-.46 21.34-19.46 38.56-43 39H44v54.8c.45 21.38 19.55 38.63 43.19 39H89c23.57-.46 42.57-17.68 43-39v-54.8z"/><g clip-path="url(#clip-path-5)"><path d="M131.22 66.43c-23.65-.38-42.74-17.63-43.2-39-.46 21.34-19.46 38.56-43 39H44v54.8c.45 21.38 19.55 38.63 43.19 39H89c23.57-.46 42.57-17.68 43-39v-54.8z" fill="url(#linear-gradient-22)"/><circle class="cls-22" cx="46.5" cy="32.87" r="41.51"/><circle class="cls-23" cx="129.52" cy="32.87" r="41.51"/><path class="cls-2" d="M87.21 157.24C65.12 156.89 47.44 141 47 121.16V69.35c18.9-1.09 34.65-12.19 41-27.58 6.34 15.41 22.1 26.51 41 27.58v51.81c-.43 19.8-18 35.65-40.09 36.08h-1.7z"/><g clip-path="url(#clip-path-6)"><path class="cls-29" d="M30.79 139.77l144.22-39.11-10.44 92-74.99 45.78-88.57-23.56 29.78-75.11z"/></g></g><path class="cls-4" d="M43.21 66.43C19.56 66.05.47 48.8 0 27.41-.47 48.75-19.47 66-43 66.43h-1v54.8c.45 21.38 19.55 38.63 43.19 39H1c23.56-.46 42.57-17.68 43-39v-54.8z"/><g clip-path="url(#clip-path-7)"><path d="M43.21 66.43C19.56 66.05.47 48.8 0 27.41-.47 48.75-19.47 66-43 66.43h-1v54.8c.45 21.38 19.55 38.63 43.19 39H1c23.56-.46 42.57-17.68 43-39v-54.8z" fill="url(#linear-gradient-24)"/><circle class="cls-23" cx="41.51" cy="32.87" r="41.51"/><path class="cls-2" d="M-.8 157.24c-22.09-.35-39.77-16.2-40.2-36.08V69.35c18.9-1.09 34.65-12.19 41-27.58 6.34 15.41 22.1 26.51 41 27.58v51.81C40.57 141 23 156.81.91 157.24H-.8z"/><g clip-path="url(#clip-path-8)"><path class="cls-29" d="M-57.22 139.77L87 100.66l-10.44 92-74.99 45.78L-87 214.88l29.78-75.11z"/></g></g><path class="cls-5" d="M175.22-27.4c-23.64-.38-42.73-17.63-43.19-39-.46 21.33-19.46 38.55-43 39H88v54.8c.46 21.38 19.55 38.63 43.2 39h1.8c23.57-.46 42.57-17.68 43-39v-54.8z"/><g clip-path="url(#clip-path-9)"><path d="M175.22-27.4c-23.64-.38-42.73-17.63-43.19-39-.46 21.33-19.46 38.55-43 39H88v54.8c.46 21.38 19.55 38.63 43.2 39h1.8c23.57-.46 42.57-17.68 43-39v-54.8z" fill="url(#linear-gradient-26)"/><path class="cls-2" d="M131.22 63.41c-22.09-.35-39.77-16.2-40.2-36.08v-51.81c18.91-1.09 34.66-12.19 41-27.57 6.34 15.41 22.11 26.5 41 27.57v51.81c-.42 19.8-18 35.65-40.09 36.08h-1.7z"/><g clip-path="url(#clip-path-10)"><path class="cls-29" d="M74.79 45.95L219.02 6.83l-10.45 92-74.98 45.78-88.57-23.55 29.77-75.11z"/></g></g><path class="cls-6" d="M87.21-27.4C63.57-27.78 44.47-45 44-66.41c-.45 21.33-19.46 38.55-43 39H0V27.4c.46 21.38 19.55 38.63 43.2 39H45c23.57-.46 42.57-17.68 43-39v-54.8z"/><g clip-path="url(#clip-path-11)"><path d="M87.21-27.4C63.57-27.78 44.47-45 44-66.41c-.45 21.33-19.46 38.55-43 39H0V27.4c.46 21.38 19.55 38.63 43.2 39H45c23.57-.46 42.57-17.68 43-39v-54.8z" fill="url(#linear-gradient-28)"/><path class="cls-2" d="M43.21 63.41C21.11 63.06 3.44 47.21 3 27.33v-51.81C21.91-25.57 37.66-36.67 44-52c6.34 15.41 22.11 26.5 41 27.57v51.76C84.58 47.13 67 63 44.91 63.41h-1.7z"/><g clip-path="url(#clip-path-12)"><path class="cls-29" d="M-13.22 45.95L131 6.83l-10.44 92-74.98 45.78-88.57-23.55 29.77-75.11z"/></g></g></pattern><style>.cls-1{fill:url(#linear-gradient)}.cls-2,.cls-29{fill:#005398}.cls-3{fill:url(#linear-gradient-2)}.cls-4{fill:url(#linear-gradient-3)}.cls-5{fill:url(#linear-gradient-4)}.cls-6{fill:url(#linear-gradient-5)}.cls-7{fill:url(#linear-gradient-6)}.cls-8{fill:#63b8dd}.cls-9{fill:url(#linear-gradient-7)}.cls-10{fill:url(#linear-gradient-8)}.cls-11{fill:url(#linear-gradient-9)}.cls-12{fill:url(#linear-gradient-10)}.cls-13{fill:url(#linear-gradient-11)}.cls-14{fill:url(#linear-gradient-12)}.cls-15{fill:url(#linear-gradient-13)}.cls-16{fill:#99999a}.cls-17{fill:#807f7f}.cls-18{fill:url(#linear-gradient-14)}.cls-22{fill:#054d7f}.cls-23{fill:#005287}.cls-29{opacity:.6;mix-blend-mode:lighten}.cls-44{opacity:.1}.cls-68{fill:#989797}.cls-69{mix-blend-mode:multiply}</style></defs><g style="isolation:isolate"><g id="Layer_1" data-name="Layer 1"><path fill="url(#Blue_Sheild)" d="M777.11 691.79l-839.33 25.34L0 0h757.65l19.46 691.79z"/><g class="cls-44"><path class="cls-7" d="M415.51 399.55c-19.91-.32-36-14.84-36.38-32.85-.38 18-16.39 32.47-36.23 32.85h-.82v46.15c.39 18 16.47 32.54 36.38 32.86h1.48c19.85-.39 35.86-14.89 36.24-32.86v-46.15z"/><g clip-path="url(#clip-path-13)"><path d="M415.51 399.55c-19.91-.32-36-14.84-36.38-32.85-.38 18-16.39 32.47-36.23 32.85h-.82v46.15c.39 18 16.47 32.54 36.38 32.86h1.48c19.85-.39 35.86-14.89 36.24-32.86v-46.15z" fill="url(#linear-gradient-30)"/><circle class="cls-22" cx="344.16" cy="371.29" r="34.96"/><circle class="cls-23" cx="414.08" cy="371.29" r="34.96"/><path class="cls-8" d="M378.45 476c-18.61-.3-33.49-13.64-33.85-30.38V402c15.92-.92 29.19-10.27 34.53-23.22 5.34 13 18.61 22.32 34.53 23.22v43.64c-.36 16.67-15.19 30-33.76 30.38h-1.44z"/><g clip-path="url(#clip-path-14)"><path class="cls-29" d="M330.93 461.32l121.46-32.94-8.8 77.48-63.15 38.55-74.59-19.83 25.08-63.26z"/></g></g></g><g class="cls-44"><path class="cls-9" d="M453.88 317.81c-19.88-.32-36-14.81-36.38-32.81-.39 18-16.39 32.47-36.24 32.86h-.81V364c.38 18 16.46 32.54 36.38 32.86h1.48c19.85-.39 35.85-14.89 36.24-32.86v-46.19z"/><g clip-path="url(#clip-path-15)"><path d="M453.88 317.81c-19.88-.32-36-14.81-36.38-32.81-.39 18-16.39 32.47-36.24 32.86h-.81V364c.38 18 16.46 32.54 36.38 32.86h1.48c19.85-.39 35.85-14.89 36.24-32.86v-46.19z" fill="url(#linear-gradient-32)"/><circle class="cls-22" cx="382.53" cy="289.54" r="34.96"/><circle class="cls-23" cx="452.44" cy="289.54" r="34.96"/><path class="cls-8" d="M416.82 394.29c-18.61-.3-33.5-13.65-33.86-30.39v-43.63c15.92-.92 29.18-10.27 34.53-23.23 5.34 13 18.61 22.33 34.53 23.23v43.63c-.35 16.68-15.18 30-33.76 30.38h-1.43z"/><g clip-path="url(#clip-path-16)"><path class="cls-29" d="M369.3 379.57l121.46-32.93-8.8 77.47-63.15 38.56-74.59-19.84 25.08-63.26z"/></g></g></g><g class="cls-44"><path class="cls-10" d="M112.85 232.62c-19.92-.32-36-14.85-36.38-32.86-.39 18-16.39 32.47-36.24 32.85h-.83v46.14c.38 18 16.46 32.54 36.38 32.86h1.48c19.85-.39 35.85-14.89 36.24-32.86v-46.13z"/><g clip-path="url(#clip-path-17)"><path d="M112.85 232.62c-19.92-.32-36-14.85-36.38-32.86-.39 18-16.39 32.47-36.24 32.85h-.83v46.14c.38 18 16.46 32.54 36.38 32.86h1.48c19.85-.39 35.85-14.89 36.24-32.86v-46.13z" fill="url(#linear-gradient-34)"/><circle class="cls-22" cx="41.5" cy="204.35" r="34.96"/><circle class="cls-23" cx="111.41" cy="204.35" r="34.96"/><path class="cls-8" d="M75.79 309.09c-18.61-.3-33.5-13.64-33.86-30.38v-43.63c15.92-.93 29.18-10.28 34.53-23.23 5.34 13 18.61 22.32 34.53 23.23v43.63c-.35 16.67-15.18 30-33.76 30.38h-1.44z"/><g clip-path="url(#clip-path-18)"><path class="cls-29" d="M28.27 294.38l121.46-32.94-8.8 77.48-63.15 38.55-74.59-19.83 25.08-63.26z"/></g></g></g><g class="cls-44"><path class="cls-12" d="M149.91 155.52c-19.92-.32-36-14.85-36.38-32.86-.39 18-16.39 32.47-36.24 32.86h-.81v46.14c.38 18 16.46 32.54 36.38 32.86h1.48c19.85-.39 35.85-14.89 36.24-32.86v-46.14z"/><g clip-path="url(#clip-path-19)"><path d="M149.91 155.52c-19.92-.32-36-14.85-36.38-32.86-.39 18-16.39 32.47-36.24 32.86h-.81v46.14c.38 18 16.46 32.54 36.38 32.86h1.48c19.85-.39 35.85-14.89 36.24-32.86v-46.14z" fill="url(#linear-gradient-36)"/><circle class="cls-22" cx="78.56" cy="127.25" r="34.96"/><circle class="cls-23" cx="148.47" cy="127.25" r="34.96"/><path class="cls-8" d="M112.85 232c-18.61-.3-33.5-13.65-33.86-30.39V158c15.93-.92 29.19-10.27 34.53-23.23 5.34 13 18.62 22.33 34.54 23.23v43.63c-.36 16.68-15.18 30-33.76 30.38h-1.43z"/><g clip-path="url(#clip-path-20)"><path class="cls-29" d="M65.33 217.28l121.45-32.93-8.79 77.47-63.15 38.56-74.59-19.84 25.08-63.26z"/></g></g></g><g class="cls-44"><path class="cls-13" d="M605 478.55c-19.92-.32-36-14.85-36.38-32.86-.39 18-16.39 32.47-36.24 32.86h-.81v46.15c.38 18 16.46 32.54 36.38 32.86h1.48c19.85-.39 35.85-14.9 36.24-32.86v-46.15z"/><g clip-path="url(#clip-path-21)"><path d="M605 478.55c-19.92-.32-36-14.85-36.38-32.86-.39 18-16.39 32.47-36.24 32.86h-.81v46.15c.38 18 16.46 32.54 36.38 32.86h1.48c19.85-.39 35.85-14.9 36.24-32.86v-46.15z" fill="url(#linear-gradient-38)"/><circle class="cls-22" cx="533.61" cy="450.29" r="34.96"/><circle class="cls-23" cx="603.52" cy="450.29" r="34.96"/><path class="cls-8" d="M567.9 555c-18.61-.3-33.5-13.65-33.86-30.39V481c15.93-.92 29.19-10.27 34.53-23.22 5.34 13 18.62 22.32 34.54 23.22v43.63c-.36 16.68-15.18 30-33.76 30.39h-1.45z"/><g clip-path="url(#clip-path-22)"><path class="cls-29" d="M520.38 540.32l121.46-32.94-8.8 77.48-63.15 38.55-74.59-19.84 25.08-63.25z"/></g></g></g><g class="cls-44"><path class="cls-14" d="M643.68 237.65c-19.92-.32-36-14.85-36.38-32.85-.39 18-16.39 32.46-36.24 32.85h-.81v46.15c.38 18 16.46 32.54 36.38 32.86h1.48c19.85-.39 35.85-14.89 36.24-32.86v-46.15z"/><g clip-path="url(#clip-path-23)"><path d="M643.68 237.65c-19.92-.32-36-14.85-36.38-32.85-.39 18-16.39 32.46-36.24 32.85h-.81v46.15c.38 18 16.46 32.54 36.38 32.86h1.48c19.85-.39 35.85-14.89 36.24-32.86v-46.15z" fill="url(#linear-gradient-40)"/><circle class="cls-22" cx="572.33" cy="209.39" r="34.96"/><circle class="cls-23" cx="642.24" cy="209.39" r="34.96"/><path class="cls-8" d="M606.62 314.13c-18.61-.3-33.5-13.65-33.86-30.39v-43.63c15.93-.92 29.19-10.27 34.53-23.22 5.34 13 18.62 22.32 34.54 23.22v43.63c-.36 16.68-15.18 30-33.76 30.39h-1.43z"/><g clip-path="url(#clip-path-24)"><path class="cls-29" d="M559.1 299.42l121.45-32.94-8.79 77.48-63.15 38.55-74.59-19.84 25.08-63.25z"/></g></g></g><g class="cls-44"><path class="cls-15" d="M565.74 75.61c-19.92-.32-36-14.85-36.38-32.86-.38 18-16.39 32.47-36.23 32.86h-.82v46.14c.39 18 16.47 32.54 36.38 32.86h1.48c19.85-.39 35.86-14.89 36.24-32.86V75.61z"/><g clip-path="url(#clip-path-25)"><path d="M565.74 75.61c-19.92-.32-36-14.85-36.38-32.86-.38 18-16.39 32.47-36.23 32.86h-.82v46.14c.39 18 16.47 32.54 36.38 32.86h1.48c19.85-.39 35.86-14.89 36.24-32.86V75.61z" fill="url(#linear-gradient-42)"/><circle class="cls-22" cx="494.39" cy="47.34" r="34.96"/><circle class="cls-23" cx="564.31" cy="47.34" r="34.96"/><path class="cls-8" d="M528.68 152.09c-18.61-.3-33.5-13.65-33.85-30.39V78.07c15.92-.92 29.18-10.27 34.53-23.23 5.34 13 18.61 22.33 34.53 23.23v43.63c-.35 16.68-15.18 30-33.75 30.38h-1.44z"/><g clip-path="url(#clip-path-26)"><path class="cls-29" d="M481.16 137.37l121.46-32.93-8.8 77.47-63.15 38.56-74.59-19.84 25.08-63.26z"/></g></g></g><g class="cls-44"><path class="cls-16" d="M452.57 154.62c-19.92-.32-36-14.85-36.38-32.86-.38 18-16.39 32.47-36.23 32.86h-.82v46.15c.39 18 16.47 32.53 36.38 32.85H417c19.85-.38 35.86-14.89 36.24-32.85v-46.15z"/><g clip-path="url(#clip-path-27)"><path fill="url(#linear-gradient-43)" d="M352.07 99.45h136.05v139.42H352.07z"/><circle class="cls-68" cx="381.22" cy="126.36" r="34.96"/><circle class="cls-68" cx="451.14" cy="126.36" r="34.96"/><g class="cls-69"><path class="cls-17" d="M415.51 231.1c-18.61-.3-33.5-13.65-33.85-30.39v-43.63c15.92-.92 29.18-10.27 34.53-23.22 5.34 13 18.61 22.32 34.53 23.22v43.63c-.35 16.68-15.18 30-33.75 30.39h-1.44z"/><g clip-path="url(#clip-path-28)"><path fill="url(#linear-gradient-44)" d="M366.67 199.38l121.46-32.94-8.8 77.48-63.15 38.56-74.59-19.84 25.08-63.26z"/></g></g></g></g><g class="cls-44"><path class="cls-16" d="M641.7 399.55c-19.91-.32-36-14.84-36.37-32.85-.39 18-16.39 32.47-36.24 32.85h-.81v46.15c.38 18 16.46 32.54 36.37 32.86h1.49c19.85-.39 35.85-14.89 36.24-32.86v-46.15z"/><g clip-path="url(#clip-path-29)"><path fill="url(#linear-gradient-45)" d="M541.21 344.38h136.05V483.8H541.21z"/><circle class="cls-68" cx="570.36" cy="371.29" r="34.96"/><circle class="cls-68" cx="640.27" cy="371.29" r="34.96"/><g class="cls-69"><path class="cls-17" d="M604.64 476c-18.6-.3-33.49-13.64-33.85-30.38V402c15.92-.92 29.19-10.27 34.53-23.22 5.34 13 18.62 22.32 34.54 23.22v43.64c-.36 16.67-15.19 30-33.76 30.38h-1.44z"/><g clip-path="url(#clip-path-30)"><path fill="url(#linear-gradient-46)" d="M555.8 444.32l121.46-32.94-8.8 77.48-63.14 38.55-74.59-19.84 25.07-63.25z"/></g></g></g></g><g class="cls-44"><path class="cls-16" d="M567.07 399.55c-19.91-.32-36-14.84-36.38-32.85-.38 18-16.39 32.47-36.23 32.85h-.82v46.15c.39 18 16.47 32.54 36.38 32.86h1.49c19.84-.39 35.85-14.89 36.23-32.86v-46.15z"/><g clip-path="url(#clip-path-31)"><path fill="url(#linear-gradient-47)" d="M466.57 344.38h136.05V483.8H466.57z"/><circle class="cls-68" cx="495.73" cy="371.29" r="34.96"/><circle class="cls-68" cx="565.64" cy="371.29" r="34.96"/><g class="cls-69"><path class="cls-17" d="M530 476c-18.61-.3-33.49-13.64-33.85-30.38V402c15.92-.92 29.19-10.27 34.53-23.22 5.34 13 18.61 22.32 34.54 23.22v43.64c-.36 16.67-15.19 30-33.76 30.38H530z"/><g clip-path="url(#clip-path-32)"><path fill="url(#linear-gradient-48)" d="M481.17 444.32l121.46-32.94-8.8 77.48-63.15 38.55-74.59-19.84 25.08-63.25z"/></g></g></g></g><g class="cls-44"><path class="cls-16" d="M112.85 397.26c-19.92-.32-36-14.85-36.38-32.86-.39 18-16.39 32.47-36.24 32.86h-.83v46.15c.38 18 16.46 32.53 36.38 32.85h1.48c19.85-.39 35.85-14.89 36.24-32.85v-46.15z"/><g clip-path="url(#clip-path-33)"><path fill="url(#linear-gradient-49)" d="M12.35 342.09H148.4v139.42H12.35z"/><circle class="cls-68" cx="41.5" cy="368.99" r="34.96"/><circle class="cls-68" cx="111.41" cy="368.99" r="34.96"/><g class="cls-69"><path class="cls-17" d="M75.79 473.74c-18.61-.3-33.5-13.65-33.86-30.39v-43.63c15.92-.92 29.18-10.27 34.53-23.23 5.34 13 18.61 22.33 34.53 23.23v43.63c-.35 16.68-15.18 30-33.76 30.39h-1.44z"/><g clip-path="url(#clip-path-34)"><path fill="url(#linear-gradient-50)" d="M26.95 442.02l121.45-32.94-8.79 77.48-63.15 38.56-74.59-19.84 25.08-63.26z"/></g></g></g></g><g class="cls-44"><path class="cls-16" d="M300.63 157.4c-19.91-.32-36-14.85-36.38-32.86-.39 18-16.39 32.47-36.24 32.86h-.82v46.15c.39 18 16.47 32.54 36.38 32.86h1.49c19.85-.38 35.85-14.89 36.23-32.85V157.4z"/><g clip-path="url(#clip-path-35)"><path fill="url(#linear-gradient-51)" d="M200.13 102.23h136.05v139.42H200.13z"/><circle class="cls-68" cx="229.29" cy="129.14" r="34.96"/><circle class="cls-68" cx="299.2" cy="129.14" r="34.96"/><g class="cls-69"><path class="cls-17" d="M263.57 233.88c-18.6-.3-33.49-13.65-33.85-30.39v-43.63c15.92-.92 29.19-10.27 34.53-23.22 5.34 13 18.62 22.32 34.54 23.22v43.63c-.36 16.68-15.19 30-33.76 30.39h-1.44z"/><g clip-path="url(#clip-path-36)"><path fill="url(#linear-gradient-52)" d="M214.73 202.16l121.46-32.93-8.8 77.47-63.15 38.56-74.59-19.84 25.08-63.26z"/></g></g></g></g><g class="cls-44"><path class="cls-16" d="M452.57 480.67c-19.92-.32-36-14.85-36.38-32.86-.38 18-16.39 32.47-36.23 32.86h-.82v46.15c.39 18 16.47 32.53 36.38 32.85H417c19.85-.38 35.86-14.89 36.24-32.85v-46.15z"/><g clip-path="url(#clip-path-37)"><path fill="url(#linear-gradient-53)" d="M352.07 425.5h136.05v139.42H352.07z"/><circle class="cls-68" cx="381.22" cy="452.41" r="34.96"/><circle class="cls-68" cx="451.14" cy="452.41" r="34.96"/><g class="cls-69"><path class="cls-17" d="M415.51 557.15c-18.61-.3-33.5-13.65-33.85-30.39v-43.63c15.92-.92 29.18-10.27 34.53-23.22 5.34 13 18.61 22.32 34.53 23.22v43.63c-.35 16.68-15.18 30-33.75 30.39h-1.44z"/><g clip-path="url(#clip-path-38)"><path fill="url(#linear-gradient-54)" d="M366.67 525.43l121.46-32.93-8.8 77.47-63.15 38.56-74.59-19.84 25.08-63.26z"/></g></g></g></g><g class="cls-44"><path class="cls-16" d="M301.06 480.67c-19.92-.32-36-14.85-36.38-32.86-.39 18-16.39 32.47-36.24 32.86h-.81v46.15c.38 18 16.46 32.53 36.38 32.85h1.48c19.85-.38 35.85-14.89 36.24-32.85v-46.15z"/><g clip-path="url(#clip-path-39)"><path fill="url(#linear-gradient-55)" d="M200.56 425.5h136.05v139.42H200.56z"/><circle class="cls-68" cx="229.71" cy="452.41" r="34.96"/><circle class="cls-68" cx="299.62" cy="452.41" r="34.96"/><g class="cls-69"><path class="cls-17" d="M264 557.15c-18.61-.3-33.5-13.65-33.86-30.39v-43.63c15.92-.92 29.18-10.27 34.53-23.22 5.34 13 18.61 22.32 34.53 23.22v43.63c-.36 16.68-15.18 30-33.76 30.39H264z"/><g clip-path="url(#clip-path-40)"><path fill="url(#linear-gradient-56)" d="M215.16 525.43l121.45-32.93-8.79 77.47-63.15 38.56-74.59-19.84 25.08-63.26z"/></g></g></g></g><g class="cls-44"><path class="cls-16" d="M528.68 316.36c-19.91-.32-36-14.85-36.38-32.86-.38 18-16.39 32.47-36.23 32.85h-.82v46.15c.39 18 16.47 32.54 36.38 32.86h1.49C513 395 529 380.47 529.34 362.5v-46.14z"/><g clip-path="url(#clip-path-41)"><path fill="url(#linear-gradient-57)" d="M428.18 261.18h136.05V400.6H428.18z"/><circle class="cls-68" cx="457.33" cy="288.09" r="34.96"/><circle class="cls-68" cx="527.25" cy="288.09" r="34.96"/><g class="cls-69"><path class="cls-17" d="M491.62 392.83c-18.61-.3-33.49-13.64-33.85-30.38v-43.63c15.92-.93 29.19-10.28 34.53-23.23 5.34 13 18.61 22.32 34.53 23.23v43.63c-.36 16.67-15.19 30-33.76 30.38h-1.44z"/><g clip-path="url(#clip-path-42)"><path fill="url(#linear-gradient-58)" d="M442.78 361.12l121.46-32.94-8.8 77.48-63.15 38.55-74.59-19.84 25.08-63.25z"/></g></g></g></g><g class="cls-44"><path class="cls-16" d="M224.44 317.81c-19.91-.32-36-14.85-36.38-32.86-.38 18-16.38 32.47-36.23 32.86H151V364c.39 18 16.47 32.54 36.38 32.86h1.49c19.85-.39 35.85-14.89 36.23-32.86v-46.19z"/><g clip-path="url(#clip-path-43)"><path fill="url(#linear-gradient-59)" d="M123.94 262.63h136.05v139.42H123.94z"/><circle class="cls-68" cx="153.1" cy="289.54" r="34.96"/><circle class="cls-68" cx="223.01" cy="289.54" r="34.96"/><g class="cls-69"><path class="cls-17" d="M187.38 394.29c-18.6-.3-33.49-13.65-33.85-30.39v-43.63c15.92-.92 29.19-10.27 34.53-23.23 5.34 13 18.62 22.33 34.54 23.23v43.63c-.36 16.68-15.19 30-33.76 30.38h-1.44z"/><g clip-path="url(#clip-path-44)"><path fill="url(#linear-gradient-60)" d="M138.54 362.57L260 329.63l-8.8 77.48-63.15 38.55-74.59-19.83 25.08-63.26z"/></g></g></g></g><g class="cls-44"><path class="cls-16" d="M226.51 156.5c-19.91-.32-36-14.85-36.38-32.85-.39 18-16.39 32.47-36.24 32.85h-.81v46.15c.38 18 16.46 32.54 36.37 32.86h1.49c19.85-.39 35.85-14.89 36.24-32.86V156.5z"/><g clip-path="url(#clip-path-45)"><path fill="url(#linear-gradient-61)" d="M126.02 101.33h136.05v139.42H126.02z"/><circle class="cls-68" cx="155.17" cy="128.24" r="34.96"/><circle class="cls-68" cx="225.08" cy="128.24" r="34.96"/><g class="cls-69"><path class="cls-17" d="M189.45 233c-18.6-.3-33.49-13.65-33.85-30.39V159c15.92-.92 29.19-10.27 34.53-23.22 5.34 13 18.62 22.32 34.54 23.22v43.63c-.36 16.68-15.19 30-33.76 30.39h-1.44z"/><g clip-path="url(#clip-path-46)"><path fill="url(#linear-gradient-62)" d="M140.61 201.27l121.46-32.94-8.8 77.48-63.14 38.55-74.6-19.84 25.08-63.25z"/></g></g></g></g></g></g></svg>