<svg xmlns="http://www.w3.org/2000/svg" viewBox="0 0 980.1 553.1"><path d="M685.5 553.1c-3.5 0-6.8-2.1-8.2-5.5-1.9-4.5.3-9.7 4.8-11.6 1.4-.6 138.2-59.3 154.8-215.6 12.7-119.2-38.1-184.9-53.8-202-11.3.6-47.6.8-69.7-20.5-24.6-23.8-39.6-84.2-40.3-86.8-.7-3 .1-6.1 2.2-8.3 2.1-2.2 5.2-3.2 8.2-2.5 2.6.5 63.5 13.5 88.1 37.4 20.9 20.2 22.9 53.9 22.9 67 16.4 17 73.9 87 60 217.7-17.8 167-164.2 229.5-165.7 230.1-1.1.4-2.2.6-3.3.6zm8.9-531.9c6.3 20.4 17.8 50.8 31.3 63.9 13.4 12.9 36.6 15.7 50.7 15.7h.2c-.4-12.4-3.1-36.6-17.4-50.4-13.4-13-44.2-23.5-64.8-29.2zM294.5 553.1c-1.1 0-2.3-.2-3.4-.7-1.5-.6-147.9-63.1-165.7-230.1-13.9-130.7 43.7-200.7 60-217.7-.1-13.1 2-46.8 22.9-67C232.9 13.8 293.8.8 296.4.2c3-.6 6.1.3 8.2 2.5s3 5.3 2.2 8.3c-.6 2.6-15.7 63-40.3 86.8-22 21.3-58.3 21.2-69.6 20.5-15.6 17.2-66.5 83.2-53.8 202 16.6 156.3 153.4 215 154.8 215.6 4.5 1.9 6.7 7.1 4.8 11.6-1.4 3.6-4.7 5.6-8.2 5.6zm-91.2-452.3h.2c12.5 0 36.5-2 50.7-15.7 13.5-13.1 25-43.5 31.3-63.9-20.6 5.6-51.4 16.1-64.9 29.2-14.2 13.8-16.9 37.9-17.3 50.4zm654.6 405.9H856c-31-1.1-55.6-29.7-56.6-31-3-3.5-2.8-8.7.4-12 1.1-1.1 27.7-27.8 58.7-26.8 29.5 1.1 73.8 28.8 75.7 30 2.7 1.7 4.3 4.7 4.2 7.9s-1.9 6-4.7 7.5c-1.9 1.1-46.3 24.4-75.8 24.4zm-38.8-36.3c7.8 7.1 22.1 17.9 37.5 18.5 14.8.5 37.7-7.9 53.8-15.1-15.6-8.4-37.8-18.5-52.6-19-14.5-.5-29.6 8.5-38.7 15.6zm-697 36.3c-29.5 0-73.9-23.4-75.8-24.4-2.8-1.5-4.6-4.4-4.7-7.5-.1-3.2 1.5-6.2 4.2-7.9 1.9-1.2 46.3-28.9 75.7-30 31-1.1 57.6 25.6 58.7 26.8 3.2 3.3 3.4 8.5.4 12-1 1.2-25.6 29.8-56.6 31h-1.9zm-52.6-32.9c16.2 7.2 39.1 15.6 53.8 15.1 14.6-.5 29-10.7 37.5-18.4-8.3-6.5-23.3-16.3-38.8-15.7-14.7.5-36.9 10.6-52.5 19zM778 451.1c-1.2 0-2.3-.2-3.4-.7-1.4-.6-34.1-14.6-42.1-41.3-7.4-24.8 4.7-68 6.1-72.9.8-2.9 3.1-5.2 6-6.1 2.9-.9 6-.2 8.3 1.8 3.8 3.3 37.7 32.8 45.1 57.6 8 26.7-11.7 56.4-12.6 57.6-1.7 2.6-4.5 4-7.4 4zM749.5 404c3.7 12.4 16.8 21.6 25 26.4 4.3-8.4 10.1-23.3 6.4-35.8-3.6-12.1-17.7-28.1-28.8-39.1-3.2 15.4-6.2 36.5-2.6 48.5zM202 451.1c-2.9 0-5.7-1.4-7.4-3.9-.8-1.2-20.6-30.9-12.6-57.6 7.4-24.8 41.2-54.3 45.1-57.6 2.3-2 5.4-2.6 8.3-1.8 2.9.9 5.2 3.1 6 6.1 1.4 4.8 13.5 48.1 6.1 72.9-8 26.7-40.7 40.7-42.1 41.3-1.1.4-2.2.6-3.4.6zm25.9-95.5c-11.1 11-25.2 27-28.8 39.1-3.7 12.5 2.1 27.3 6.4 35.8 8.2-4.7 21.2-13.9 25-26.4 3.6-12.1.6-33.2-2.6-48.5zM895.3 407c-23.5 0-44.8-12.1-45.9-12.8a8.97 8.97 0 01-3.7-11.3c.7-1.5 16.2-36.3 45.8-45.9 28-9.2 79.5 2 81.6 2.5 3.1.7 5.6 2.9 6.5 5.9 1 3 .3 6.3-1.8 8.6-1.5 1.7-36.4 41-64.4 50.2-6 2-12.2 2.8-18.1 2.8zM866 382.6c9.8 4.1 27.1 9.6 41.8 4.8 14.2-4.6 32.8-20.8 45.4-33.3-17.6-2.6-42.2-4.7-56.3-.1-14.8 4.8-25.5 19.5-30.9 28.6zM84.7 407c-6 0-12.1-.8-18.1-2.7-28.1-9.2-63-48.5-64.4-50.2-2.1-2.4-2.8-5.7-1.8-8.6 1-3 3.5-5.3 6.5-5.9 2.2-.5 53.6-11.6 81.6-2.5 29.5 9.6 45.1 44.4 45.8 45.9 1.8 4.2.2 9-3.7 11.3-1 .6-22.3 12.7-45.9 12.7zm-58-53c12.6 12.5 31.3 28.7 45.4 33.3 14 4.6 31.2-.3 41.9-4.8-5.4-9.1-16.2-23.8-31-28.6-14.1-4.6-38.7-2.5-56.3.1zm593.9 3.3c-1.4 0-2.8-.3-4.1-1l-37.4-19.7-37.4 19.7c-3 1.6-6.6 1.3-9.4-.7-2.7-2-4.1-5.4-3.5-8.7l7.1-41.7-30.3-29.5c-2.4-2.4-3.3-5.9-2.3-9.1s3.8-5.6 7.2-6.1l41.8-6.1 18.7-37.9c1.5-3 4.6-5 8-5s6.5 1.9 8 5l18.7 37.9 41.8 6.1c3.4.5 6.1 2.8 7.2 6.1s.2 6.8-2.3 9.1l-30.3 29.5 7.1 41.7c.6 3.3-.8 6.7-3.5 8.7-1.4 1.2-3.2 1.7-5.1 1.7zm-41.5-39.6c1.4 0 2.8.3 4.1 1l25.6 13.5-4.9-28.5c-.5-2.9.5-5.8 2.6-7.9l20.7-20.2-28.6-4.2c-2.9-.4-5.4-2.2-6.7-4.9l-12.8-25.9-12.8 26c-1.3 2.6-3.8 4.4-6.7 4.9l-28.6 4.2 20.7 20.2c2.1 2 3.1 5 2.6 7.9l-4.9 28.5 25.6-13.5c1.2-.8 2.6-1.1 4.1-1.1zm-136.6 39.6c-1.4 0-2.8-.3-4.1-1l-37.5-19.7-37.4 19.7c-3 1.6-6.6 1.3-9.4-.7-2.7-2-4.1-5.4-3.5-8.7l7.1-41.7-30.3-29.5c-2.4-2.4-3.3-5.9-2.3-9.1s3.8-5.6 7.2-6.1l41.8-6.1 18.7-37.9c1.5-3 4.6-5 8-5 3.4 0 6.5 1.9 8 5l18.7 37.9 41.8 6.1c3.4.5 6.1 2.8 7.2 6.1 1 3.2.2 6.8-2.3 9.1l-30.3 29.5 7.1 41.7c.6 3.3-.8 6.7-3.5 8.7-1.3 1.2-3.2 1.7-5 1.7zm-41.6-39.6c1.4 0 2.8.3 4.1 1l25.6 13.5-4.9-28.5c-.5-2.9.5-5.8 2.6-7.9l20.7-20.2-28.6-4.2c-2.9-.4-5.4-2.2-6.7-4.9l-12.8-25.9-12.8 26c-1.3 2.6-3.8 4.4-6.7 4.9l-28.6 4.2 20.7 20.2c2.1 2 3.1 5 2.6 7.9l-4.9 28.5 25.6-13.5c1.3-.8 2.7-1.1 4.1-1.1zm423.3 19.1c-5.5 0-36.6-.9-53.8-20-17.3-19.1-25.7-62.5-26.7-67.4-.6-3 .5-6.2 2.8-8.2 2.3-2.1 5.5-2.8 8.5-1.9 4.8 1.4 47.1 14.3 64.4 33.4 18.6 20.6 14.5 55 14.3 56.4-.6 4.4-4.2 7.7-8.6 7.8-.2-.1-.4-.1-.9-.1zm-40.6-31.9c8.6 9.5 23.5 12.6 32.8 13.6-.1-9.3-1.6-24.5-10.2-34-8.3-9.2-27-17.8-41.4-23.2 3.9 14.9 10.5 34.4 18.8 43.6zm-627.8 31.9h-.8c-4.4-.1-8.1-3.4-8.6-7.8-.2-1.5-4.3-35.8 14.3-56.4 17.3-19.1 59.6-32 64.4-33.4 3-.9 6.2-.1 8.5 1.9 2.3 2.1 3.4 5.2 2.8 8.2-.9 4.9-9.4 48.3-26.7 67.4-17.4 19.3-48.4 20.1-53.9 20.1zm59.5-75.4c-14.4 5.5-33.1 14-41.4 23.2-8.6 9.5-10.2 24.7-10.2 34 9.3-1 24.2-4.1 32.8-13.7 8.2-9.2 14.8-28.7 18.8-43.5zm-107.6 36.7c-9.6 0-40.8-1.6-59.2-20.9-20.4-21.4-31.7-73.4-32.2-75.6-.6-3 .3-6.2 2.6-8.3 2.2-2.1 5.4-3 8.4-2.1 2.2.6 53.5 14.5 73.9 35.9 21.5 22.6 17.9 61.3 17.8 63-.4 4.4-4 7.8-8.4 8-.3-.1-1.3 0-2.9 0zm-70.2-85.2c4.9 17.2 13.5 41.1 23.9 52 10.3 10.8 28.3 14.3 40 15.2-.2-10.7-2.3-29.4-13.1-40.8-10.4-10.9-33.8-20.6-50.8-26.4zm834.8 85.2c-1.6 0-2.6 0-2.8-.1-4.4-.2-8-3.6-8.4-8-.2-1.6-3.7-40.4 17.8-63 20.4-21.4 71.7-35.3 73.9-35.9 3-.8 6.2 0 8.4 2.1s3.2 5.3 2.6 8.3c-.5 2.2-11.8 54.1-32.2 75.6-18.5 19.4-49.8 21-59.3 21zm19.4-58.8c-10.8 11.4-12.9 30-13.1 40.7 10.7-.7 29.2-3.7 40-15.1 10.4-10.9 18.9-34.8 23.9-52-17 5.8-40.4 15.5-50.8 26.4zM203 213.9c-21.7 0-41.2-11.9-42.2-12.5-3.9-2.4-5.3-7.4-3.3-11.5.6-1.3 15.8-31.2 42.3-38.7 25.1-7.2 69.8 4 71.7 4.5 3.1.8 5.5 3.1 6.4 6.2s0 6.3-2.2 8.6c-1.4 1.4-33.5 34.4-58.6 41.6-4.6 1.2-9.4 1.8-14.1 1.8zm-24.9-23.7c8.4 3.7 22.1 8.1 34.2 4.7 11.7-3.3 27.3-15.4 38.6-25.4-14.9-2.6-34.5-4.6-46.2-1.3-12.1 3.4-21.4 14.4-26.6 22zM777 213.9c-4.7 0-9.4-.6-14.2-1.9-25.1-7.1-57.2-40.2-58.6-41.6-2.2-2.3-3-5.6-2.2-8.6.9-3.1 3.3-5.4 6.4-6.2 1.9-.5 46.6-11.6 71.7-4.5 26.6 7.6 41.7 37.5 42.3 38.7 2 4.1.6 9.1-3.3 11.5-.9.6-20.5 12.6-42.1 12.6zm-47.9-44.4c11.3 10 26.9 22.1 38.6 25.4 12 3.4 25.8-1 34.2-4.7-5.2-7.6-14.5-18.5-26.6-22-11.7-3.3-31.3-1.3-46.2 1.3zm120.8 17.7c-3.1 0-6.1-1.6-7.7-4.5-.8-1.4-20-35.4-9.6-64.8 9.9-27.9 51.2-61.5 53-62.9 2.4-1.9 5.7-2.5 8.6-1.5 2.9 1 5.1 3.5 5.7 6.5.5 2.2 11.4 54.3 1.5 82.2-10.4 29.4-46.7 43.7-48.3 44.3-1 .5-2.1.7-3.2.7zm35.2-108.1c-13.2 12.2-30.7 30.6-35.7 44.8-5 14 .1 31.8 4.7 42.6 9.5-5 25.3-15.3 30.6-30.1 5-14.2 3-39.6.4-57.3zm-755 108.1c-1.1 0-2.1-.2-3.2-.6-1.5-.6-37.9-14.9-48.3-44.3-9.9-27.9 1.1-80 1.5-82.2.6-3 2.8-5.5 5.7-6.5 2.9-1 6.2-.5 8.6 1.5 1.8 1.4 43.1 35 53 62.9 10.4 29.4-8.8 63.4-9.6 64.8-1.7 2.8-4.6 4.4-7.7 4.4zM94.9 79.1c-2.6 17.8-4.5 43.1.5 57.3 5.3 14.8 21 25.1 30.5 30.1 4.2-9.9 10-27.8 4.7-42.6-5-14.2-22.5-32.7-35.7-44.8z"/></svg>